<svg xmlns="http://www.w3.org/2000/svg" width="41" height="41"><path data-name="Прямоугольник 2" d="M20.5 0A20.5 20.5 0 110 20.5 20.5 20.5 0 0120.5 0zm-8.425 18.313h18.35a1.825 1.825 0 011.825 1.825v.006a1.825 1.825 0 01-1.825 1.825h-18.35a1.825 1.825 0 01-1.825-1.825v-.006a1.825 1.825 0 011.825-1.826zm1.474 7.781h14.34a1.83 1.83 0 011.83 1.83v.34a1.83 1.83 0 01-1.83 1.83h-14.34a1.83 1.83 0 01-1.83-1.83v-.34a1.83 1.83 0 011.83-1.83zm0-16.594h14.34a1.831 1.831 0 011.83 1.83v.34a1.831 1.831 0 01-1.83 1.83h-14.34a1.83 1.83 0 01-1.83-1.83v-.34a1.83 1.83 0 011.83-1.83z" fill="#111" fill-rule="evenodd"/></svg>