<svg xmlns="http://www.w3.org/2000/svg" width="41" height="41" viewBox="0 0 41 41">
  <defs>
    <style>
      .cls-1 {
        fill: #111;
        fill-rule: evenodd;
      }
    </style>
  </defs>
  <path id="Прямоугольник_2" data-name="Прямоугольник 2" class="cls-1" d="M953.5,22A20.5,20.5,0,1,1,933,42.5,20.5,20.5,0,0,1,953.5,22Zm-8.425,18.313h18.35a1.825,1.825,0,0,1,1.825,1.825v0.006a1.825,1.825,0,0,1-1.825,1.825h-18.35a1.825,1.825,0,0,1-1.825-1.825V42.138A1.825,1.825,0,0,1,945.075,40.312Zm1.474,7.781h14.34a1.83,1.83,0,0,1,1.83,1.83v0.34a1.83,1.83,0,0,1-1.83,1.83h-14.34a1.83,1.83,0,0,1-1.83-1.83v-0.34A1.83,1.83,0,0,1,946.549,48.094Zm0-16.594h14.34a1.831,1.831,0,0,1,1.83,1.83v0.34a1.831,1.831,0,0,1-1.83,1.83h-14.34a1.83,1.83,0,0,1-1.83-1.83V33.33A1.83,1.83,0,0,1,946.549,31.5Z" transform="translate(-933 -22)"/>
</svg>
